<svg xmlns="http://www.w3.org/2000/svg" width="1600" height="900" viewBox="0 0 1600 900">
  <defs>
    <linearGradient id="bg" x1="0" y1="0" x2="0" y2="1">
      <stop offset="0" stop-color="#0b1220"/>
      <stop offset="1" stop-color="#04060c"/>
    </linearGradient>
    <linearGradient id="mist" x1="0" y1="0" x2="1" y2="1">
      <stop offset="0" stop-color="#ffffff" stop-opacity="0.08"/>
      <stop offset="1" stop-color="#ffffff" stop-opacity="0"/>
    </linearGradient>
    <filter id="softGlow" x="-20%" y="-20%" width="140%" height="140%">
      <feGaussianBlur stdDeviation="6" result="blur"/>
      <feColorMatrix in="blur" type="matrix"
        values="1 0 0 0 0
                0 1 0 0 0
                0 0 1 0 0
                0 0 0 0.6 0" result="glow"/>
      <feMerge>
        <feMergeNode in="glow"/>
        <feMergeNode in="SourceGraphic"/>
      </feMerge>
    </filter>
  </defs>

  <rect width="1600" height="900" fill="url(#bg)"/>
  <rect width="1600" height="900" fill="url(#mist)"/>

  <!-- Subtle grid -->
  <g opacity="0.08" stroke="#ffffff" stroke-width="1">
    <path d="M0 150H1600M0 300H1600M0 450H1600M0 600H1600M0 750H1600"/>
    <path d="M200 0V900M400 0V900M600 0V900M800 0V900M1000 0V900M1200 0V900M1400 0V900"/>
  </g>

  <!-- Stylized landmasses (placeholder) -->
  <g fill="#8bd3ff" fill-opacity="0.14" stroke="#bfe9ff" stroke-opacity="0.25" stroke-width="2" filter="url(#softGlow)">
    <path d="M210,340 C250,240 350,190 470,210 C560,225 620,280 640,360 C660,450 600,520 510,550 C400,595 275,560 230,470 C205,420 195,380 210,340 Z"/>
    <path d="M760,240 C840,160 980,140 1080,190 C1170,235 1240,320 1230,410 C1220,520 1125,590 1015,610 C900,630 820,585 770,510 C725,445 710,330 760,240 Z"/>
    <path d="M1240,650 C1290,600 1380,585 1460,620 C1530,650 1560,710 1525,770 C1480,845 1375,860 1295,820 C1215,780 1195,700 1240,650 Z"/>
  </g>

  <g opacity="0.7">
    <text x="80" y="120" fill="#ffffff" fill-opacity="0.7" font-family="ui-sans-serif, system-ui, -apple-system" font-size="42" font-weight="700">
      World Map (Variant 3)
    </text>
    <text x="80" y="160" fill="#ffffff" fill-opacity="0.45" font-family="ui-sans-serif, system-ui, -apple-system" font-size="18">
      Placeholder art — replace `public/images/world-map-3.svg` with your real map.
    </text>
  </g>
</svg>
